<?xml version="1.0" standalone="no"?>
<!DOCTYPE svg PUBLIC "-//W3C//DTD SVG 20010904//EN"
 "http://www.w3.org/TR/2001/REC-SVG-20010904/DTD/svg10.dtd">
<svg version="1.0" xmlns="http://www.w3.org/2000/svg"
 width="400.000000pt" height="400.000000pt" viewBox="0 0 400.000000 400.000000"
 preserveAspectRatio="xMidYMid meet">
<metadata>
Created by potrace 1.11, written by Peter Selinger 2001-2013
</metadata>
<g transform="translate(0.000000,400.000000) scale(0.100000,-0.100000)"
fill="#000000" stroke="none">
<path d="M1860 3650 c-21 -11 -301 -90 -322 -92 -32 -1 -155 -57 -163 -74 -10
-20 -12 -256 -5 -653 4 -193 7 -182 -63 -195 -12 -2 -69 -21 -127 -41 -58 -20
-112 -38 -120 -40 -8 -1 -42 -13 -75 -25 -33 -11 -88 -30 -123 -41 -84 -27
-93 -42 -87 -152 3 -48 8 -162 10 -255 3 -92 7 -182 8 -199 3 -29 -2 -36 -23
-35 -99 7 -167 13 -184 17 -12 2 -52 7 -91 10 -38 3 -79 7 -90 9 -31 5 -81
-35 -127 -100 -23 -32 -45 -61 -48 -64 -3 -3 -40 -50 -81 -105 l-74 -100 1
-90 c2 -123 12 -249 26 -315 6 -30 12 -86 13 -125 5 -129 16 -310 21 -344 6
-46 15 -55 114 -119 47 -30 117 -78 155 -107 39 -28 90 -64 115 -79 25 -15 69
-43 98 -61 30 -19 62 -32 72 -30 17 3 45 15 195 86 28 13 73 38 101 55 28 18
116 64 195 102 79 38 155 79 168 91 29 26 48 22 114 -26 26 -19 47 -31 47 -26
0 4 5 0 11 -10 6 -9 14 -15 20 -12 5 4 9 2 9 -3 0 -5 8 -12 18 -15 18 -6 74
-38 82 -48 6 -7 203 -123 210 -124 3 -1 27 -15 54 -33 57 -37 81 -39 116 -12
14 11 31 20 38 20 6 0 12 4 12 8 0 5 17 16 38 25 49 21 220 113 305 165 37 23
70 42 73 42 6 0 62 39 88 62 19 17 22 17 65 -9 25 -15 55 -32 66 -38 11 -6 74
-42 140 -81 66 -39 174 -99 240 -134 66 -34 122 -65 125 -69 17 -22 57 -28 93
-14 20 8 37 19 37 24 0 5 6 9 13 9 7 0 22 8 33 17 11 10 33 25 50 34 46 24 79
44 84 49 17 17 209 140 218 140 7 0 12 4 12 9 0 5 12 14 28 20 46 20 61 51 67
142 6 95 15 212 20 249 8 69 19 189 31 320 5 60 4 68 -20 92 -22 25 -24 34
-21 94 5 71 13 139 21 165 10 36 -21 55 -289 184 -31 15 -60 31 -63 36 -3 5
-14 9 -25 9 -10 0 -19 5 -19 12 0 6 -3 8 -7 5 -3 -4 -15 0 -25 10 -10 9 -18
13 -18 9 0 -3 -17 2 -38 13 -20 10 -53 22 -72 25 -19 3 -49 10 -67 15 -17 5
-34 6 -38 3 -4 -4 -4 37 0 90 13 183 13 386 1 402 -6 9 -56 31 -111 50 -95 32
-263 91 -295 104 -8 3 -18 6 -22 7 -5 2 -9 3 -10 5 -2 1 -10 3 -18 5 -20 5
-194 68 -200 72 -5 5 -5 63 4 298 18 538 18 523 -1 533 -10 6 -34 13 -53 16
-19 3 -66 15 -105 26 -124 37 -192 57 -222 64 -10 3 -49 15 -88 27 -72 23
-215 34 -245 19z"/>
</g>
</svg>
